<?xml version="1.0" encoding="utf-8"?>
<!-- Generator: Adobe Illustrator 19.0.0, SVG Export Plug-In . SVG Version: 6.00 Build 0)  -->
<svg version="1.1" id="Layer_1" xmlns="http://www.w3.org/2000/svg" xmlns:xlink="http://www.w3.org/1999/xlink" x="0px" y="0px"
	 viewBox="-474 226 50 50" style="enable-background:new -474 226 50 50;" xml:space="preserve">
<style type="text/css">
	.st0{fill:#E9ECEF;}
	.st1{opacity:0.9;}
</style>
<g>
	<g id="XMLID_2_">
		<path id="XMLID_25_" class="st0" d="M-441.5,235c0,1.2,0.9,2.6,2,3.3c4.8,2.9,8,8,8,13.8c0,9.1-7.9,16.5-17.5,16.5
			s-17.5-7.4-17.5-16.5c0-5.8,3.2-10.9,8-13.8c1.1-0.6,2-2,2-3.3v-0.6c0-1.2-1-1.9-2.1-1.4c-7.6,3.4-12.9,10.7-12.9,19.1
			c0,11.7,10.1,21.2,22.5,21.2s22.5-9.5,22.5-21.2c0-7.7-4.4-14.4-10.9-18.1c-1.1-0.6-2.8-1.4-3.5-0.9c-0.4,0.3-0.6,0.7-0.6,1.4V235
			z"/>
		<path id="XMLID_24_" class="st0" d="M-441.5,235c0,1.2,0.9,2.6,2,3.3c4.8,2.9,8,8,8,13.8c0,9.1-7.9,16.5-17.5,16.5
			s-17.5-7.4-17.5-16.5c0-5.8,3.2-10.9,8-13.8c1.1-0.6,2-2,2-3.3v-0.6c0-1.2-1-1.9-2.1-1.4c-7.6,3.4-12.9,10.7-12.9,19.1
			c0,11.7,10.1,21.2,22.5,21.2s22.5-9.5,22.5-21.2c0-7.7-4.4-14.4-10.9-18.1c-1.1-0.6-2.8-1.4-3.5-0.9c-0.4,0.3-0.6,0.7-0.6,1.4V235
			z"/>
	</g>
	<g id="XMLID_3_">
		<ellipse id="XMLID_22_" class="st0" cx="-456.4" cy="248.2" rx="2.9" ry="2.9"/>
		<ellipse id="XMLID_21_" class="st0" cx="-456.4" cy="248.2" rx="2.9" ry="2.9"/>
	</g>
	<g id="XMLID_4_">
		<ellipse id="XMLID_19_" class="st0" cx="-441.6" cy="248.2" rx="2.9" ry="2.9"/>
		<ellipse id="XMLID_18_" class="st0" cx="-441.6" cy="248.2" rx="2.9" ry="2.9"/>
	</g>
	<g id="XMLID_47_">
		<path id="XMLID_16_" class="st0" d="M-457.1,257.5l4.3,0.9c2.1,0.5,5.6,0.4,7.6-0.1l4.3-1c2.1-0.5,2.5-0.1,0.8,1.1l-2.9,1.9
			c0,0-1.3,0.9-2.9,1.9s-4.3,1.1-5.9,0.1l-3.1-1.9c0,0-1.3-0.9-3-1.9C-459.6,257.5-459.2,257-457.1,257.5z"/>
		<path id="XMLID_15_" class="st0" d="M-457.1,257.5l4.3,0.9c2.1,0.5,5.6,0.4,7.6-0.1l4.3-1c2.1-0.5,2.5-0.1,0.8,1.1l-2.9,1.9
			c0,0-1.3,0.9-2.9,1.9s-4.3,1.1-5.9,0.1l-3.1-1.9c0,0-1.3-0.9-3-1.9C-459.6,257.5-459.2,257-457.1,257.5z"/>
	</g>
	<g id="XMLID_7_" class="st1">
		<path id="XMLID_13_" class="st0" d="M-451.6,228.6h2.7h2.7c0.9,0,1.6,0.8,1.3,1.9l-1.7,6.7l-1.7,6.7c-0.2,1-0.7,1-0.9,0l-1.7-6.7
			l-1.7-6.7C-453.1,229.4-452.5,228.6-451.6,228.6z"/>
		<path id="XMLID_12_" class="st0" d="M-451.6,228.6h2.7h2.7c0.9,0,1.6,0.8,1.3,1.9l-1.7,6.7l-1.7,6.7c-0.2,1-0.7,1-0.9,0l-1.7-6.7
			l-1.7-6.7C-453.1,229.4-452.5,228.6-451.6,228.6z"/>
	</g>
</g>
</svg>
